<svg width="146" height="19" viewBox="0 0 146 19" fill="none" xmlns="http://www.w3.org/2000/svg">
<path d="M56.4537 4.58884H50.9299C50.7408 4.58884 50.5874 4.7423 50.5874 4.93147V7.61172C50.5874 7.83274 50.7929 7.99585 51.008 7.94567L55.8729 6.80967C56.3727 6.69289 56.8513 7.0722 56.8513 7.58663V9.67426C56.8513 9.97153 56.6467 10.2292 56.3582 10.2968L50.8517 11.5824C50.6964 11.6191 50.5874 11.7571 50.5874 11.9163V14.169C50.5874 14.3389 50.5198 14.501 50.4002 14.6207L48.0903 16.9313C47.6879 17.3338 47 17.049 47 16.4796V4.59753C47 4.38616 47.0839 4.18347 47.2335 4.03388L50.0316 1.23491C50.1812 1.08531 50.3838 1.00134 50.5951 1.00134H58.7627C59.3319 1.00134 59.6166 1.6895 59.2142 2.09197L56.9043 4.40256C56.7857 4.52128 56.6236 4.58884 56.4537 4.58884Z" fill="black"/>
<path d="M67.6095 4.58862H62.0857C61.8965 4.58862 61.7431 4.74208 61.7431 4.93125V7.81225C61.7431 7.93097 61.8531 8.0188 61.9689 7.99177L67.2236 6.76506C67.624 6.67143 68.007 6.97546 68.007 7.38758V9.67598C68.007 9.97325 67.8025 10.2309 67.514 10.2985L62.0075 11.5841C61.8522 11.6208 61.7431 11.7588 61.7431 11.918V13.1921C61.7431 13.3812 61.8965 13.5347 62.0857 13.5347H67.2101C67.65 13.5347 68.008 13.8918 68.008 14.3329V16.3259C68.008 16.766 67.651 17.1241 67.2101 17.1241H61.5154H58.9537C58.5137 17.1241 58.1558 16.767 58.1558 16.3259V4.59924C58.1558 4.38787 58.2397 4.18518 58.3893 4.03558L61.2337 1.19029C61.3533 1.07061 61.5164 1.00305 61.6852 1.00305H69.9184C70.4877 1.00305 70.7723 1.69121 70.37 2.09368L68.0601 4.40428C67.9414 4.52106 67.7793 4.58862 67.6095 4.58862Z" fill="black"/>
<path d="M69.4987 4.07996L72.3431 1.23467C72.4927 1.08507 72.6953 1.0011 72.9066 1.0011H81.4968C81.9368 1.0011 82.2947 1.35821 82.2947 1.79928V16.3249C82.2947 16.7651 81.9377 17.1231 81.4968 17.1231H79.5043C79.0644 17.1231 78.7064 16.766 78.7064 16.3249V10.5205C78.7064 10.4018 78.5964 10.3139 78.4806 10.341L73.1613 11.5831C73.006 11.6198 72.8969 11.7578 72.8969 11.9171V14.3628C72.8969 14.5326 72.8294 14.6948 72.7098 14.8145L70.671 16.8539C70.1683 17.3567 69.3096 17.0006 69.3096 16.2902V4.53165C69.3115 4.36178 69.379 4.19964 69.4987 4.07996ZM78.7083 6.41468V4.93123C78.7083 4.74206 78.5549 4.5886 78.3658 4.5886H73.2414C73.0523 4.5886 72.8989 4.74206 72.8989 4.93123V7.61148C72.8989 7.8325 73.1044 7.99561 73.3195 7.94543L78.4439 6.74862C78.5983 6.71291 78.7083 6.57393 78.7083 6.41468Z" fill="black"/>
<path d="M100.703 1.64188V13.19C100.703 13.3792 100.856 13.5326 101.045 13.5326H106.273C106.713 13.5326 107.071 13.8898 107.071 14.3308V16.3239C107.071 16.764 106.714 17.1221 106.273 17.1221H97.9122C97.4722 17.1221 97.1143 16.765 97.1143 16.3239V3.95247C97.1143 3.7826 97.1818 3.62046 97.3014 3.50078L99.6113 1.19018C100.015 0.787713 100.703 1.07243 100.703 1.64188Z" fill="black"/>
<path d="M111.816 13.5326H119.267C119.977 13.5326 120.333 14.3916 119.83 14.8944L117.838 16.8875C117.688 17.0371 117.485 17.1211 117.274 17.1211H111.246H108.684C108.244 17.1211 107.886 16.764 107.886 16.3229V4.53152C107.886 4.36165 107.954 4.19951 108.073 4.07983L110.965 1.18724C111.085 1.06756 111.247 1 111.416 1H119.65C120.219 1 120.504 1.68816 120.101 2.09063L117.839 4.35393C117.689 4.50353 117.486 4.5875 117.275 4.5875H111.817C111.628 4.5875 111.474 4.74096 111.474 4.93013V7.61038C111.474 7.8314 111.68 7.99451 111.895 7.94433L116.76 6.80833C117.26 6.69155 117.738 7.07086 117.738 7.58529V9.67293C117.738 9.9702 117.534 10.2279 117.245 10.2955L111.739 11.581C111.583 11.6177 111.474 11.7557 111.474 11.915V13.189C111.472 13.3791 111.626 13.5326 111.816 13.5326Z" fill="black"/>
<path d="M132.025 9.25791V13.5905C132.025 13.7604 131.957 13.9225 131.838 14.0422L128.993 16.8875C128.844 17.0371 128.641 17.1211 128.43 17.1211H120.262C119.693 17.1211 119.408 16.4329 119.811 16.0304L122.12 13.7198C122.239 13.6002 122.402 13.5326 122.571 13.5326H128.095C128.284 13.5326 128.438 13.3791 128.438 13.19V11.9517C128.438 11.7828 128.314 11.639 128.147 11.6129L119.715 10.3003C119.326 10.2395 119.041 9.90553 119.041 9.51174V4.59619C119.041 4.38482 119.125 4.18213 119.274 4.03253L122.072 1.23357C122.222 1.08397 122.425 1 122.636 1H133.239C133.949 1 134.305 1.85899 133.802 2.36184L131.81 4.3549C131.66 4.5045 131.458 4.58847 131.246 4.58847H122.969C122.78 4.58847 122.626 4.74193 122.626 4.9311V6.95407C122.626 7.0448 122.692 7.12201 122.782 7.13552L131.348 8.46937C131.738 8.53018 132.025 8.86412 132.025 9.25791Z" fill="black"/>
<path d="M136.603 4.93123V5.83365C136.603 5.91376 136.655 5.98518 136.732 6.00931L145.551 8.75519C145.818 8.8382 146 9.08528 146 9.36517V13.5906C146 13.7605 145.932 13.9227 145.813 14.0423L142.968 16.8876C142.819 17.0372 142.616 17.1212 142.405 17.1212H131.418C130.849 17.1212 130.564 16.433 130.966 16.0306L133.229 13.7673C133.378 13.6177 133.581 13.5337 133.792 13.5337H142.07C142.259 13.5337 142.412 13.3802 142.412 13.1911V11.7675C142.412 11.6873 142.36 11.6159 142.283 11.5918L133.464 8.84592C133.197 8.76291 133.016 8.51583 133.016 8.23594V4.53165C133.016 4.36178 133.083 4.19964 133.203 4.07996L136.047 1.23467C136.197 1.08507 136.399 1.0011 136.611 1.0011H144.395C145.105 1.0011 145.461 1.86009 144.959 2.36294L142.966 4.356C142.817 4.50559 142.614 4.58956 142.403 4.58956H136.945C136.756 4.5886 136.603 4.74206 136.603 4.93123Z" fill="black"/>
<path d="M92.6099 10.2868L87.0649 11.582C86.9095 11.6187 86.8005 11.7567 86.8005 11.916V16.3229C86.8005 16.763 86.4435 17.1211 86.0025 17.1211H84.0101C83.5701 17.1211 83.2122 16.764 83.2122 16.3229V4.36069V1.79819C83.2122 1.35808 83.5692 1 84.0101 1H95.3984C95.8384 1 96.1963 1.35711 96.1963 1.79819V3.75071V6.6983C96.1963 6.86817 96.1288 7.03032 96.0092 7.15L93.9714 9.18842C93.7552 9.40461 93.9086 9.7733 94.2135 9.7733H95.3994C95.8393 9.7733 96.1973 10.1304 96.1973 10.5715V14.104C96.1973 14.3153 96.1134 14.518 95.9638 14.6676L93.7012 16.9309C93.2988 17.3334 92.6109 17.0487 92.6109 16.4792V10.2868H92.6099ZM92.6099 6.41455V4.9311C92.6099 4.74193 92.4565 4.58847 92.2674 4.58847H87.143C86.9539 4.58847 86.8005 4.74193 86.8005 4.9311V7.61134C86.8005 7.83237 87.006 7.99548 87.2212 7.94529L92.3456 6.74849C92.5009 6.71278 92.6099 6.5738 92.6099 6.41455Z" fill="black"/>
<path d="M41.5163 2.70872L25.2782 4.84302C25.1855 4.85519 25.0992 4.89748 25.0332 4.96353L23.6965 6.29254C23.5303 6.45823 23.2615 6.45823 23.0947 6.29254L22.8608 6.05965C22.6928 5.89279 22.6928 5.62108 22.8608 5.45423L24.4564 3.86799C24.6243 3.70114 24.6243 3.42943 24.4564 3.26257L21.3005 0.124269C21.1343 -0.0414231 20.8655 -0.0414231 20.6987 0.124269L17.5429 3.26257C17.3749 3.42943 17.3749 3.70114 17.5429 3.86799L19.1385 5.45423C19.3064 5.62108 19.3064 5.89279 19.1385 6.05965L18.9045 6.29254C18.7383 6.45823 18.4695 6.45823 18.3027 6.29254L16.966 4.96353C16.8994 4.89748 16.8137 4.85519 16.721 4.84302L0.483504 2.70872C0.078667 2.65542 -0.162267 3.14671 0.127316 3.43464L3.66834 6.95589C3.93823 7.22413 3.74827 7.68528 3.36775 7.68528C2.98724 7.68528 2.79727 8.14644 3.06717 8.41468L6.38637 11.7152C6.44081 11.7691 6.50915 11.8079 6.58329 11.8264L17.8817 14.6594C17.9732 14.6826 18.0548 14.7353 18.1133 14.8095L19.8613 17.0307C20.1729 17.4611 20.6993 17.9594 20.6993 17.9594C20.8655 18.1251 21.1343 18.1251 21.3011 17.9594C21.3011 17.9594 21.7366 17.5191 22.1391 17.0307L23.887 14.8095C23.9455 14.7353 24.0266 14.6826 24.1187 14.6594L35.4171 11.8264C35.4918 11.8079 35.5596 11.7691 35.614 11.7152L38.9332 8.41468C39.2031 8.14644 39.0131 7.68528 38.6326 7.68528C38.2521 7.68528 38.0621 7.22413 38.332 6.95589L41.8731 3.43464C42.1621 3.14671 41.9211 2.656 41.5163 2.70872Z" fill="black"/>
</svg>
