<svg width="146" height="28" viewBox="0 0 146 28" fill="none" xmlns="http://www.w3.org/2000/svg">
<g clip-path="url(#clip0)">
<path d="M56.4537 14.589H50.9299C50.7408 14.589 50.5874 14.7424 50.5874 14.9316V17.6118C50.5874 17.8329 50.7929 17.996 51.008 17.9458L55.8729 16.8098C56.3727 16.693 56.8513 17.0723 56.8513 17.5867V19.6744C56.8513 19.9717 56.6467 20.2294 56.3582 20.2969L50.8517 21.5825C50.6964 21.6192 50.5874 21.7572 50.5874 21.9165V24.1691C50.5874 24.339 50.5198 24.5011 50.4002 24.6208L48.0903 26.9314C47.6879 27.3339 47 27.0492 47 26.4797V14.5976C47 14.3863 47.0839 14.1836 47.2335 14.034L50.0316 11.235C50.1812 11.0854 50.3838 11.0015 50.5951 11.0015H58.7627C59.3319 11.0015 59.6166 11.6896 59.2142 12.0921L56.9043 14.4027C56.7857 14.5214 56.6236 14.589 56.4537 14.589Z" fill="black"/>
<path d="M67.6095 14.5885H62.0857C61.8965 14.5885 61.7431 14.742 61.7431 14.9311V17.8121C61.7431 17.9308 61.8531 18.0187 61.9689 17.9917L67.2236 16.7649C67.624 16.6713 68.007 16.9753 68.007 17.3875V19.6759C68.007 19.9731 67.8025 20.2308 67.514 20.2984L62.0075 21.584C61.8522 21.6207 61.7431 21.7587 61.7431 21.9179V23.1919C61.7431 23.3811 61.8965 23.5346 62.0857 23.5346H67.2101C67.65 23.5346 68.008 23.8917 68.008 24.3327V26.3258C68.008 26.7659 67.651 27.124 67.2101 27.124H61.5154H58.9537C58.5137 27.124 58.1558 26.7669 58.1558 26.3258V14.5991C58.1558 14.3877 58.2397 14.1851 58.3893 14.0355L61.2337 11.1902C61.3533 11.0705 61.5164 11.0029 61.6852 11.0029H69.9184C70.4877 11.0029 70.7723 11.6911 70.37 12.0936L68.0601 14.4042C67.9414 14.5209 67.7793 14.5885 67.6095 14.5885Z" fill="black"/>
<path d="M69.4987 14.0798L72.3431 11.2345C72.4927 11.0849 72.6953 11.001 72.9066 11.001H81.4968C81.9368 11.001 82.2947 11.3581 82.2947 11.7992V26.3248C82.2947 26.7649 81.9377 27.123 81.4968 27.123H79.5043C79.0644 27.123 78.7064 26.7659 78.7064 26.3248V20.5203C78.7064 20.4016 78.5964 20.3138 78.4806 20.3408L73.1613 21.583C73.006 21.6197 72.8969 21.7577 72.8969 21.9169V24.3627C72.8969 24.5325 72.8294 24.6947 72.7098 24.8143L70.671 26.8537C70.1683 27.3566 69.3096 27.0004 69.3096 26.2901V14.5315C69.3115 14.3617 69.379 14.1995 69.4987 14.0798ZM78.7083 16.4146V14.9311C78.7083 14.7419 78.5549 14.5885 78.3658 14.5885H73.2414C73.0523 14.5885 72.8989 14.7419 72.8989 14.9311V17.6114C72.8989 17.8324 73.1044 17.9955 73.3195 17.9453L78.4439 16.7485C78.5983 16.7128 78.7083 16.5738 78.7083 16.4146Z" fill="black"/>
<path d="M100.703 11.6419V23.19C100.703 23.3792 100.856 23.5326 101.045 23.5326H106.273C106.713 23.5326 107.071 23.8898 107.071 24.3308V26.3239C107.071 26.764 106.714 27.1221 106.273 27.1221H97.9122C97.4722 27.1221 97.1143 26.765 97.1143 26.3239V13.9525C97.1143 13.7826 97.1818 13.6205 97.3014 13.5008L99.6113 11.1902C100.015 10.7877 100.703 11.0724 100.703 11.6419Z" fill="black"/>
<path d="M111.816 23.5326H119.267C119.977 23.5326 120.333 24.3916 119.83 24.8944L117.838 26.8875C117.688 27.0371 117.485 27.1211 117.274 27.1211H111.246H108.684C108.244 27.1211 107.886 26.764 107.886 26.3229V14.5315C107.886 14.3617 107.954 14.1995 108.073 14.0798L110.965 11.1872C111.085 11.0676 111.247 11 111.416 11H119.65C120.219 11 120.504 11.6882 120.101 12.0906L117.839 14.3539C117.689 14.5035 117.486 14.5875 117.275 14.5875H111.817C111.628 14.5875 111.474 14.741 111.474 14.9301V17.6104C111.474 17.8314 111.68 17.9945 111.895 17.9443L116.76 16.8083C117.26 16.6915 117.738 17.0709 117.738 17.5853V19.6729C117.738 19.9702 117.534 20.2279 117.245 20.2955L111.739 21.581C111.583 21.6177 111.474 21.7557 111.474 21.915V23.189C111.472 23.3791 111.626 23.5326 111.816 23.5326Z" fill="black"/>
<path d="M132.025 19.2579V23.5905C132.025 23.7604 131.957 23.9225 131.838 24.0422L128.993 26.8875C128.844 27.0371 128.641 27.1211 128.43 27.1211H120.262C119.693 27.1211 119.408 26.4329 119.811 26.0304L122.12 23.7198C122.239 23.6002 122.402 23.5326 122.571 23.5326H128.095C128.284 23.5326 128.438 23.3791 128.438 23.19V21.9517C128.438 21.7828 128.314 21.639 128.147 21.6129L119.715 20.3003C119.326 20.2395 119.041 19.9055 119.041 19.5117V14.5962C119.041 14.3848 119.125 14.1821 119.274 14.0325L122.072 11.2336C122.222 11.084 122.425 11 122.636 11H133.239C133.949 11 134.305 11.859 133.802 12.3618L131.81 14.3549C131.66 14.5045 131.458 14.5885 131.246 14.5885H122.969C122.78 14.5885 122.626 14.7419 122.626 14.9311V16.9541C122.626 17.0448 122.692 17.122 122.782 17.1355L131.348 18.4694C131.738 18.5302 132.025 18.8641 132.025 19.2579Z" fill="black"/>
<path d="M136.603 14.9311V15.8335C136.603 15.9136 136.655 15.9851 136.732 16.0092L145.551 18.7551C145.818 18.8381 146 19.0852 146 19.3651V23.5905C146 23.7604 145.932 23.9225 145.813 24.0422L142.968 26.8875C142.819 27.0371 142.616 27.1211 142.405 27.1211H131.418C130.849 27.1211 130.564 26.4329 130.966 26.0304L133.229 23.7671C133.378 23.6175 133.581 23.5336 133.792 23.5336H142.07C142.259 23.5336 142.412 23.3801 142.412 23.1909V21.7673C142.412 21.6872 142.36 21.6158 142.283 21.5917L133.464 18.8458C133.197 18.7628 133.016 18.5157 133.016 18.2358V14.5315C133.016 14.3617 133.083 14.1995 133.203 14.0798L136.047 11.2345C136.197 11.0849 136.399 11.001 136.611 11.001H144.395C145.105 11.001 145.461 11.86 144.959 12.3628L142.966 14.3559C142.817 14.5055 142.614 14.5894 142.403 14.5894H136.945C136.756 14.5885 136.603 14.7419 136.603 14.9311Z" fill="black"/>
<path d="M92.6099 20.2868L87.0649 21.582C86.9095 21.6187 86.8005 21.7567 86.8005 21.916V26.3229C86.8005 26.763 86.4435 27.1211 86.0025 27.1211H84.0101C83.5701 27.1211 83.2122 26.764 83.2122 26.3229V14.3607V11.7982C83.2122 11.3581 83.5692 11 84.0101 11H95.3984C95.8384 11 96.1963 11.3571 96.1963 11.7982V13.7507V16.6983C96.1963 16.8682 96.1288 17.0303 96.0092 17.15L93.9714 19.1884C93.7552 19.4046 93.9086 19.7733 94.2135 19.7733H95.3994C95.8393 19.7733 96.1973 20.1304 96.1973 20.5715V24.104C96.1973 24.3153 96.1134 24.518 95.9638 24.6676L93.7012 26.9309C93.2988 27.3334 92.6109 27.0487 92.6109 26.4792V20.2868H92.6099ZM92.6099 16.4145V14.9311C92.6099 14.7419 92.4565 14.5885 92.2674 14.5885H87.143C86.9539 14.5885 86.8005 14.7419 86.8005 14.9311V17.6113C86.8005 17.8324 87.006 17.9955 87.2212 17.9453L92.3456 16.7485C92.5009 16.7128 92.6099 16.5738 92.6099 16.4145Z" fill="black"/>
<path d="M41.5163 12.7087L25.2782 14.843C25.1855 14.8552 25.0992 14.8975 25.0332 14.9635L23.6965 16.2925C23.5303 16.4582 23.2615 16.4582 23.0947 16.2925L22.8608 16.0596C22.6928 15.8928 22.6928 15.6211 22.8608 15.4542L24.4564 13.868C24.6243 13.7011 24.6243 13.4294 24.4564 13.2626L21.3005 10.1243C21.1343 9.95858 20.8655 9.95858 20.6987 10.1243L17.5429 13.2626C17.3749 13.4294 17.3749 13.7011 17.5429 13.868L19.1385 15.4542C19.3064 15.6211 19.3064 15.8928 19.1385 16.0596L18.9045 16.2925C18.7383 16.4582 18.4695 16.4582 18.3027 16.2925L16.966 14.9635C16.8994 14.8975 16.8137 14.8552 16.721 14.843L0.483504 12.7087C0.078667 12.6554 -0.162267 13.1467 0.127316 13.4346L3.66834 16.9559C3.93823 17.2241 3.74827 17.6853 3.36775 17.6853C2.98724 17.6853 2.79727 18.1464 3.06717 18.4147L6.38637 21.7152C6.44081 21.7691 6.50915 21.8079 6.58329 21.8264L17.8817 24.6594C17.9732 24.6826 18.0548 24.7353 18.1133 24.8095L19.8613 27.0307C20.1729 27.4611 20.6993 27.9594 20.6993 27.9594C20.8655 28.1251 21.1343 28.1251 21.3011 27.9594C21.3011 27.9594 21.7366 27.5191 22.1391 27.0307L23.887 24.8095C23.9455 24.7353 24.0266 24.6826 24.1187 24.6594L35.4171 21.8264C35.4918 21.8079 35.5596 21.7691 35.614 21.7152L38.9332 18.4147C39.2031 18.1464 39.0131 17.6853 38.6326 17.6853C38.2521 17.6853 38.0621 17.2241 38.332 16.9559L41.8731 13.4346C42.1621 13.1467 41.9211 12.656 41.5163 12.7087Z" fill="black"/>
</g>
<defs>
<clipPath id="clip0">
<rect width="146" height="28" fill="white"/>
</clipPath>
</defs>
</svg>
